<svg width="18" height="15" viewBox="0 0 18 15" fill="none" xmlns="http://www.w3.org/2000/svg">
<path d="M15.0113 8.625H17.125C17.4702 8.625 17.75 8.34518 17.75 8C17.75 7.65482 17.4702 7.375 17.125 7.375H14.625C14.3883 7.375 14.1719 7.50875 14.066 7.72049L11.5774 12.6976L7.08405 0.902503C7.02504 0.747602 6.90692 0.622487 6.75566 0.554682C6.6044 0.486877 6.4324 0.481935 6.2775 0.540945C6.12366 0.599554 5.99915 0.716497 5.93102 0.866373L2.97255 7.375H0.875C0.529822 7.375 0.25 7.65482 0.25 8C0.25 8.34518 0.529822 8.625 0.875 8.625H3.375C3.62009 8.625 3.84256 8.48175 3.94398 8.25863L6.44917 2.74721L10.9159 14.4725C10.9717 14.6189 11.0804 14.739 11.2205 14.809C11.3688 14.8831 11.5404 14.8953 11.6976 14.8429C11.8549 14.7905 11.9849 14.6778 12.059 14.5295L15.0113 8.625Z" fill="#1C1C1C"/>
</svg>
